<mxfile host="app.diagrams.net" agent="Mozilla/5.0 (Windows NT 10.0; Win64; x64) AppleWebKit/537.36 (KHTML, like Gecko) Chrome/127.0.0.0 Safari/537.36" version="24.7.7">
  <diagram name="Page-1" id="Ht2RegGBL9LBQONDED7f">
    <mxGraphModel dx="1754" dy="642" grid="0" gridSize="10" guides="1" tooltips="1" connect="1" arrows="1" fold="1" page="0" pageScale="1" pageWidth="850" pageHeight="1100" math="0" shadow="0">
      <root>
        <mxCell id="0" />
        <mxCell id="1" parent="0" />
        <mxCell id="1ps1KzBbgAItE6dfK8ml-1" value="" style="rounded=1;whiteSpace=wrap;html=1;" vertex="1" parent="1">
          <mxGeometry x="-256" width="760" height="450" as="geometry" />
        </mxCell>
        <mxCell id="1ps1KzBbgAItE6dfK8ml-2" value="" style="group" vertex="1" connectable="0" parent="1">
          <mxGeometry x="74" y="30" width="340" height="30" as="geometry" />
        </mxCell>
        <mxCell id="1ps1KzBbgAItE6dfK8ml-3" value="Home" style="text;strokeColor=none;align=center;fillColor=none;html=1;verticalAlign=middle;whiteSpace=wrap;rounded=0;" vertex="1" parent="1ps1KzBbgAItE6dfK8ml-2">
          <mxGeometry width="60" height="30" as="geometry" />
        </mxCell>
        <UserObject label="TimeTable" link="https://www.google.co.in/" linkTarget="_blank" id="1ps1KzBbgAItE6dfK8ml-4">
          <mxCell style="text;strokeColor=none;align=center;fillColor=none;html=1;verticalAlign=middle;whiteSpace=wrap;rounded=0;points=[[0,0,0,0,0],[0,0.25,0,0,0],[0,0.5,0,0,0],[0,0.75,0,0,0],[0,1,0,0,0],[0.25,0,0,0,0],[0.25,1,0,0,0],[0.5,0,0,0,0],[0.5,1,0,0,0],[0.75,0,0,0,0],[0.75,1,0,0,0],[1,0,0,0,0],[1,0.25,0,0,0],[1,0.5,0,0,0],[1,0.75,0,0,0],[1,1,0,0,0]];" vertex="1" parent="1ps1KzBbgAItE6dfK8ml-2">
            <mxGeometry x="80" width="60" height="30" as="geometry" />
          </mxCell>
        </UserObject>
        <mxCell id="1ps1KzBbgAItE6dfK8ml-5" value="Faculty" style="text;strokeColor=none;align=center;fillColor=none;html=1;verticalAlign=middle;whiteSpace=wrap;rounded=0;" vertex="1" parent="1ps1KzBbgAItE6dfK8ml-2">
          <mxGeometry x="180" width="60" height="30" as="geometry" />
        </mxCell>
        <mxCell id="1ps1KzBbgAItE6dfK8ml-6" value="Contact" style="text;strokeColor=none;align=center;fillColor=none;html=1;verticalAlign=middle;whiteSpace=wrap;rounded=0;" vertex="1" parent="1ps1KzBbgAItE6dfK8ml-2">
          <mxGeometry x="280" width="60" height="30" as="geometry" />
        </mxCell>
        <mxCell id="1ps1KzBbgAItE6dfK8ml-7" value="Web" style="ellipse;shape=cloud;whiteSpace=wrap;html=1;" vertex="1" parent="1">
          <mxGeometry x="-236" y="10" width="120" height="80" as="geometry" />
        </mxCell>
        <mxCell id="1ps1KzBbgAItE6dfK8ml-8" value="CBIT" style="text;strokeColor=black;align=center;fillColor=none;html=1;verticalAlign=middle;whiteSpace=wrap;rounded=0;" vertex="1" parent="1">
          <mxGeometry x="-176" y="150" width="590" height="210" as="geometry" />
        </mxCell>
      </root>
    </mxGraphModel>
  </diagram>
</mxfile>
